<svg width="0" height="0" version="1.1" xmlns="http://www.w3.org/2000/svg" xmlns:xlink="http://www.w3.org/1999/xlink">
<symbol id="ico-arrow_down" viewBox="0 0 1024 1024">
	<title>arrow_down</title>
	<path class="path1" d="M511.999 803.854c-18.352 0-36.702-7.007-50.694-20.992l-440.297-440.301c-28.009-28.009-28.009-73.42 0-101.417 27.997-27.997 73.399-27.997 101.41 0l389.58 389.603 389.583-389.589c28.009-27.997 73.406-27.997 101.401 0 28.022 27.997 28.022 73.408 0 101.417l-440.29 440.301c-13.999 13.987-32.349 20.979-50.694 20.979z"></path>
</symbol>
<symbol id="ico-facebook" viewBox="0 0 585 1024">
	<title>facebook</title>
	<path class="path1" d="M563.2 0h-138.971c-153.6 0-263.314 102.4-263.314 248.686v117.029h-138.971c-14.629 0-21.943 7.314-21.943 21.943v168.229c0 14.629 7.314 21.943 21.943 21.943h138.971v424.229c0 14.629 7.314 21.943 21.943 21.943h182.857c14.629 0 21.943-7.314 21.943-21.943v-424.229h160.914c14.629 0 21.943-7.314 21.943-21.943v-168.229c0-7.314 0-7.314-7.314-14.629 0-7.314 0-7.314-7.314-7.314h-160.914v-95.086c0-43.886 14.629-73.143 80.457-73.143h95.086c7.314 0 14.629-7.314 14.629-21.943v-153.6c0-14.629-7.314-21.943-21.943-21.943z"></path>
</symbol>
<symbol id="ico-facebook_shadow" viewBox="0 0 1024 1024">
	<title>facebook_shadow</title>
	<path fill="currentColor" class="path1" d="M529.067 512l-27.307-218.453-501.76 501.76v228.693h283.307l273.067-273.067z"></path>
	<path class="path2" d="M638.293 273.067h-64.853c-71.68 0-122.88 47.787-122.88 116.053v54.613h-64.853c-6.827 0-10.24 3.413-10.24 10.24v78.507c0 6.827 3.413 10.24 10.24 10.24h64.853v197.973c0 6.827 3.413 10.24 10.24 10.24h85.333c6.827 0 10.24-3.413 10.24-10.24v-197.973h75.093c6.827 0 10.24-3.413 10.24-10.24v-78.507c0-3.413 0-3.413-3.413-6.827 0-3.413 0-3.413-3.413-3.413h-75.093v-44.373c0-20.48 6.827-34.133 37.547-34.133h44.373c6.827 0 10.24-3.413 10.24-10.24v-71.68c-3.413-6.827-6.827-10.24-13.653-10.24z"></path>
</symbol>
<symbol id="ico-google" viewBox="0 0 1170 1024">
	<title>google</title>
	<path class="path1" d="M760.686 0h-285.257c-124.343 0-219.429 21.943-292.571 80.457-65.829 43.886-102.4 109.714-102.4 175.543 0 102.4 87.771 212.114 263.314 212.114 14.629 0 36.571 0 51.2 0v7.314c-14.629 7.314-21.943 21.943-21.943 43.886 0 36.571 21.943 65.829 43.886 87.771v0h-7.314c-73.143 7.314-197.486 14.629-292.571 58.514-109.714 58.514-117.029 146.286-117.029 168.229 0 95.086 102.4 190.171 336.457 190.171 270.629 0 409.6-124.343 409.6-256 0-95.086-65.829-138.971-131.657-190.171l-51.2-29.257c-21.943-14.629-43.886-29.257-43.886-58.514s21.943-43.886 43.886-65.829v0c58.514-43.886 131.657-87.771 131.657-190.171s-73.143-153.6-109.714-182.857h95.086c0 0 0 0 0 0l80.457-43.886c7.314 0 7.314 0 0-7.314 7.314 0 7.314 0 0 0zM416.914 965.486c-168.229 0-277.943-65.829-277.943-160.914 0-65.829 43.886-109.714 131.657-138.971 73.143-21.943 168.229-21.943 168.229-21.943 14.629 0 21.943 0 36.571 0 117.029 73.143 168.229 109.714 168.229 175.543 0 95.086-87.771 146.286-226.743 146.286zM409.6 431.543c-138.971 0-190.171-153.6-190.171-241.371 0-43.886 14.629-73.143 36.571-102.4s65.829-43.886 109.714-43.886c124.343 0 197.486 146.286 197.486 248.686 0 14.629 0 65.829-36.571 95.086s-80.457 43.886-117.029 43.886z"></path>
	<path class="path2" d="M1162.971 475.429h-153.6v-124.343c0 0 0-7.314-7.314-7.314h-65.829c0 0-7.314 0-7.314 7.314v131.657h-153.6c0 0-7.314 0-7.314 7.314v58.514c0 0 0 7.314 7.314 7.314h153.6v131.657c0 0 0 7.314 7.314 7.314h65.829c0 0 7.314 0 7.314-7.314v-146.286h153.6c0 0 7.314 0 7.314-7.314l-7.314-58.514c7.314 7.314 7.314 0 0 0z"></path>
</symbol>
<symbol id="ico-google_shadow" viewBox="0 0 1024 1024">
	<title>google_shadow</title>
	<path fill="currentColor" class="path1" d="M631.467 529.067l-30.72-34.133-75.093-71.68-6.827-54.613-13.653-78.507h-112.64l-23.893-3.413-58.027 34.133-310.613 310.613v392.533h286.72l498.347-498.347z"></path>
	<path class="path2" d="M590.507 273.067h-129.707c-58.027 0-102.4 10.24-136.533 37.547-30.72 20.48-47.787 51.2-47.787 85.333 0 47.787 40.96 98.987 122.88 98.987 6.827 0 17.067 0 23.893 0v3.413c-3.413 6.827-6.827 10.24-6.827 23.893 0 17.067 10.24 27.307 20.48 40.96h-3.413c-34.133 3.413-92.16 6.827-136.533 27.307-54.613 20.48-58.027 58.027-58.027 71.68 0 44.373 47.787 88.747 157.013 88.747 126.293 0 191.147-58.027 191.147-119.467 0-44.373-30.72-64.853-61.44-85.333l-27.307-17.067c-6.827-6.827-17.067-10.24-17.067-27.307s10.24-23.893 20.48-27.307c27.307-20.48 61.44-40.96 61.44-88.747s-34.133-71.68-51.2-85.333h44.373l37.547-20.48v-3.413c0 0 0-3.413-3.413-3.413zM539.307 655.36c0 40.96-40.96 68.267-105.813 68.267-78.507 0-129.707-30.72-129.707-75.093 0-27.307 20.48-51.2 61.44-64.853 34.133-10.24 75.093-10.24 78.507-10.24 6.827 0 10.24 0 17.067 0 51.2 34.133 78.507 51.2 78.507 81.92zM481.28 453.973c-13.653 10.24-30.72 17.067-51.2 17.067-64.853 0-92.16-71.68-92.16-109.227 0-20.48 6.827-34.133 17.067-47.787 10.24-10.24 30.72-20.48 51.2-20.48 58.027 0 92.16 68.267 92.16 112.64 0 10.24 0 34.133-17.067 47.787z"></path>
	<path class="path3" d="M709.973 494.933v-61.44c0 0 0-3.413-3.413-3.413h-30.72c0 0-3.413 0-3.413 3.413v61.44h-71.68c0 0-3.413 0-3.413 3.413v27.307c0 0 0 3.413 3.413 3.413h71.68v61.44c0 0 0 3.413 3.413 3.413h30.72c0 0 3.413 0 3.413-3.413v-61.44h71.68c0 0 3.413 0 3.413-3.413l-3.413-27.307h-71.68z"></path>
</symbol>
<symbol id="ico-menu" viewBox="0 0 1536 1024">
	<title>menu</title>
	<path class="path1" d="M0 1024h1536v-170.667h-1536v170.667zM0 597.333h1536v-170.667h-1536v170.667zM0 0v170.667h1536v-170.667h-1536z"></path>
</symbol>
<symbol id="ico-menu_categories" viewBox="0 0 1536 1024">
	<title>menu_categories</title>
	<path class="path1" d="M281.098 1024h1254.902v-170.667h-1254.902v170.667zM281.098 597.333h1254.902v-170.667h-1254.902v170.667zM281.098 0v170.667h1254.902v-170.667h-1254.902z"></path>
	<!-- last -->
	<path class="path2" d="M41.83 853.333h90.353c22.086 0 40.157 18.071 40.157 40.157v90.353c0 22.086-18.071 40.157-40.157 40.157h-90.353c-22.086 0-40.157-18.071-40.157-40.157v-90.353c0-22.086 18.071-40.157 40.157-40.157z"></path>
	<!-- second -->
	<path class="path3" d="M41.83 426.667h90.353c22.086 0 40.157 18.071 40.157 40.157v90.353c0 22.086-18.071 40.157-40.157 40.157h-90.353c-22.086 0-40.157-18.071-40.157-40.157v-90.353c0-22.086 18.071-40.157 40.157-40.157z"></path>
	<!-- first -->
	<path class="path4" d="M40.157 0h90.353c22.086 0 40.157 18.071 40.157 40.157v90.353c0 22.086-18.071 40.157-40.157 40.157h-90.353c-22.086 0-40.157-18.071-40.157-40.157v-90.353c0-22.086 18.071-40.157 40.157-40.157z"></path>
</symbol>
<symbol id="ico-odnoklassniki" viewBox="0 0 640 1024">
	<title>odnoklassniki</title>
	<path class="path1" d="M268.8 723.2c-83.2-6.4-153.6-25.6-217.6-76.8-12.8-6.4-19.2-12.8-25.6-19.2-32-25.6-32-51.2-6.4-83.2 12.8-25.6 44.8-32 83.2-19.2 6.4 6.4 12.8 6.4 19.2 12.8 115.2 76.8 281.6 83.2 396.8 6.4 12.8-12.8 25.6-19.2 38.4-19.2 25.6-12.8 51.2 0 70.4 19.2 19.2 25.6 19.2 57.6-6.4 76.8-32 32-70.4 57.6-115.2 70.4-44.8 19.2-89.6 25.6-128 25.6 6.4 12.8 6.4 12.8 12.8 19.2 57.6 57.6 121.6 115.2 185.6 179.2 19.2 19.2 25.6 44.8 12.8 70.4s-38.4 38.4-70.4 38.4c-19.2 0-32-12.8-44.8-19.2-38.4-44.8-89.6-89.6-134.4-134.4-12.8-12.8-19.2-12.8-32 0-44.8 44.8-89.6 89.6-140.8 134.4-19.2 19.2-44.8 25.6-70.4 12.8s-44.8-38.4-44.8-64c0-19.2 12.8-32 19.2-44.8 57.6-57.6 121.6-115.2 179.2-172.8 12.8-6.4 12.8-6.4 19.2-12.8z"></path>
	<path class="path2" d="M313.6 518.4c-147.2 0-268.8-121.6-262.4-262.4 0-140.8 121.6-256 268.8-256s268.8 115.2 262.4 262.4c6.4 140.8-115.2 256-268.8 256zM448 262.4c0-70.4-57.6-128-128-128-76.8 0-128 57.6-128 128s57.6 128 128 128c76.8-6.4 128-64 128-128z"></path>
</symbol>
<symbol id="ico-odnoklassniki_shadow" viewBox="0 0 1024 1024">
	<title>odnoklassniki_shadow</title>
	<path fill="currentColor" class="path1" d="M539.307 624.64l122.88-105.813-218.453-95.573-27.307-146.773-416.427 416.427v331.093h385.707l262.827-259.413z"></path>
	<path class="path2" d="M641.707 515.413c-6.827 3.413-13.653 6.827-20.48 10.24-64.853 40.96-150.187 40.96-215.040-3.413-3.413-3.413-6.827-3.413-10.24-6.827-17.067-6.827-34.133-3.413-47.787 10.24-10.24 20.48-10.24 34.133 3.413 47.787 3.413 3.413 6.827 6.827 10.24 10.24 34.133 23.893 75.093 37.547 119.467 40.96-3.413 3.413-3.413 6.827-6.827 6.827-30.72 30.72-64.853 61.44-95.573 92.16-6.827 6.827-10.24 13.653-10.24 23.893 0 13.653 6.827 27.307 20.48 34.133s27.307 3.413 40.96-6.827c23.893-23.893 51.2-47.787 75.093-71.68 6.827-6.827 10.24-6.827 17.067 0 23.893 23.893 51.2 47.787 75.093 71.68 6.827 6.827 13.653 10.24 20.48 10.24 13.653 0 27.307-6.827 34.133-20.48s3.413-27.307-6.827-37.547c-30.72-30.72-64.853-64.853-98.987-95.573-3.413-3.413-3.413-3.413-6.827-6.827 23.893-3.413 51.2-6.827 71.68-13.653 23.893-10.24 47.787-20.48 64.853-37.547 6.827-10.24 6.827-23.893 0-40.96s-20.48-20.48-34.133-17.067z"></path>
	<path class="path3" d="M512 238.933c-78.507 0-143.36 61.44-143.36 136.533s64.853 139.947 143.36 139.947 146.773-61.44 146.773-136.533c0-78.507-64.853-139.947-146.773-139.947zM512 443.733c-40.96 0-71.68-30.72-71.68-68.267s30.72-68.267 71.68-68.267 71.68 30.72 71.68 68.267-30.72 68.267-71.68 68.267z"></path>
</symbol>
<symbol id="ico-search" viewBox="0 0 1024 1024">
	<title>search</title>
	<path class="path1" d="M683.841 117.168c-156.213-156.213-410.46-156.213-566.673 0-156.179 156.246-156.179 410.46 0 566.707 139.111 139.078 355.77 153.978 511.881 45.377 3.285 15.543 10.802 30.376 22.892 42.465l227.495 227.495c33.152 33.085 86.725 33.085 119.708 0 33.119-33.119 33.119-86.691 0-119.708l-227.495-227.563c-12.022-11.988-26.888-19.539-42.431-22.824 108.668-156.145 93.768-372.77-45.377-511.949zM612.016 612.050c-116.626 116.626-306.431 116.626-423.024 0-116.558-116.626-116.558-306.397 0-423.024 116.592-116.592 306.397-116.592 423.024 0 116.626 116.626 116.626 306.397 0 423.024z"></path>
</symbol>
<symbol id="ico-star" viewBox="0 0 33 32">
<title>star</title>
<path class="path1" d="M32 12.559c0.134 0.401 0 0.802-0.267 1.069l-5.812 5.678c-0.601 0.534-0.868 1.336-0.735 2.138l1.403 8.017c0.067 0.401-0.067 0.802-0.401 1.002-0.334 0.267-0.735 0.267-1.136 0.067l-7.215-3.808c-0.334-0.2-0.735-0.267-1.136-0.267s-0.735 0.067-1.136 0.267l-7.215 3.808c-0.334 0.2-0.802 0.134-1.136-0.067-0.334-0.267-0.468-0.601-0.401-1.002l1.403-8.017c0.134-0.802-0.134-1.537-0.668-2.138l-5.879-5.678c-0.267-0.267-0.401-0.668-0.267-1.069s0.468-0.668 0.868-0.735l8.084-1.203c0.802-0.134 1.47-0.601 1.804-1.336l3.608-7.349c0.2-0.401 0.534-0.601 0.935-0.601s0.735 0.2 0.935 0.601l3.608 7.349c0.334 0.735 1.002 1.203 1.804 1.336l8.084 1.203c0.401 0.067 0.735 0.334 0.868 0.735z"></path>
<path class="path2" fill="currentColor" d="M31.733 13.628c0.267-0.267 0.401-0.668 0.267-1.069s-0.468-0.668-0.868-0.735l-8.084-1.203c-0.802-0.134-1.47-0.601-1.804-1.336l-3.608-7.349c-0.2-0.401-0.534-0.601-0.935-0.601s-0.735 0.2-0.935 0.601l-3.608 7.349c-0.334 0.735-1.002 1.203-1.804 1.336l-8.084 1.203c-0.401 0.067-0.735 0.334-0.868 0.735s0 0.802 0.267 1.069l5.879 5.678c0.534 0.601 0.802 1.336 0.668 2.138l-1.403 8.017c-0.067 0.401 0.067 0.735 0.401 1.002 0.334 0.2 0.802 0.267 1.136 0.067l7.215-3.808c0.401-0.2 0.735-0.267 1.136-0.267s0.802 0.067 1.136 0.267l7.215 3.808c0.401 0.2 0.802 0.2 1.136-0.067 0.334-0.2 0.468-0.601 0.401-1.002l-1.403-8.017c-0.134-0.802 0.134-1.603 0.735-2.138l5.812-5.678zM33.269 12.092c0.267 0.868 0.067 1.804-0.601 2.472l-5.879 5.678c-0.267 0.267-0.401 0.601-0.334 0.935l1.403 8.017c0.2 0.935-0.2 1.804-0.935 2.338-0.401 0.334-0.935 0.468-1.403 0.468-0.401 0-0.802-0.067-1.136-0.267l-7.215-3.808c-0.334-0.134-0.668-0.134-1.002 0l-7.215 3.808c-0.802 0.401-1.804 0.334-2.539-0.2s-1.069-1.403-0.935-2.338l1.403-8.017c0-0.334-0.067-0.668-0.334-0.935l-5.812-5.678c-0.668-0.668-0.868-1.603-0.601-2.472s1.002-1.47 1.937-1.603l8.084-1.203c0.334-0.067 0.668-0.267 0.802-0.601l3.608-7.349c0.401-0.802 1.203-1.336 2.138-1.336s1.737 0.534 2.138 1.336l3.608 7.349c0.134 0.334 0.468 0.534 0.802 0.601l8.084 1.203c0.935 0.134 1.67 0.735 1.937 1.603z"></path>
</symbol>
<symbol id="ico-twitter" viewBox="0 0 1229 1024">
	<title>twitter</title>
	<path class="path1" d="M1228.8 122.88c-40.96 20.48-92.16 30.72-143.36 40.96 51.2-30.72 92.16-81.92 112.64-143.36-51.2 30.72-102.4 51.2-163.84 61.44-51.2-51.2-112.64-81.92-184.32-81.92-133.12 0-245.76 112.64-245.76 256 0 20.48 0 40.96 10.24 61.44-215.040-10.24-399.36-112.64-522.24-266.24-20.48 30.72-30.72 81.92-30.72 122.88 0 92.16 40.96 163.84 112.64 215.040-40.96 0-81.92-10.24-112.64-30.72v0c0 122.88 81.92 235.52 204.8 256-30.72 10.24-61.44 10.24-81.92 10.24s-30.72 0-51.2 0c30.72 102.4 122.88 174.080 235.52 184.32-81.92 71.68-194.56 112.64-307.2 112.64-20.48 0-40.96 0-61.44 0 112.64 51.2 245.76 102.4 378.88 102.4 460.8 0 716.8-399.36 716.8-737.28v-30.72c51.2-40.96 102.4-81.92 133.12-133.12z"></path>
</symbol>
<symbol id="ico-twitter_shadow" viewBox="0 0 1024 1024">
	<title>twitter_shadow</title>
	<path fill="currentColor" class="path1" d="M334.507 361.813l-334.507 334.507v327.68h191.147l402.773-402.773z"></path>
	<path class="path2" d="M706.56 348.16c-17.067 10.24-34.133 17.067-54.613 20.48-13.653-17.067-37.547-27.307-61.44-27.307-47.787 0-85.333 37.547-85.333 88.747 0 6.827 0 13.653 3.413 20.48-68.267-3.413-133.12-37.547-174.080-92.16-6.827 13.653-10.24 27.307-10.24 40.96 0 30.72 13.653 54.613 37.547 68.267-13.653 0-27.307-3.413-37.547-10.24 0 40.96 27.307 75.093 68.267 81.92-6.827 6.827-13.653 6.827-20.48 6.827h-17.067c10.24 34.133 40.96 58.027 78.507 58.027-27.307 23.893-64.853 37.547-105.813 37.547h-20.48c37.547 23.893 81.92 37.547 129.707 37.547 153.6 0 238.933-133.12 238.933-242.347v-10.24c17.067-10.24 30.72-27.307 40.96-44.373-13.653 6.827-30.72 10.24-47.787 13.653 17.067-10.24 30.72-27.307 37.547-47.787z"></path>
</symbol>
<symbol id="ico-vk" viewBox="0 0 853 1024">
	<title>vk</title>
	<path class="path1" d="M605.867 460.8c51.2-8.533 93.867-34.133 128-76.8s51.2-93.867 51.2-145.067c0-145.067-145.067-238.933-307.2-238.933h-477.867v1024h426.667c307.2 0 426.667-162.133 426.667-307.2 8.533-162.133-42.667-230.4-247.467-256zM204.8 170.667h85.333c34.133 0 119.467 0 136.533 17.067 42.667 17.067 59.733 59.733 59.733 93.867s-17.067 85.333-51.2 102.4c-42.667 34.133-102.4 42.667-145.067 42.667h-93.867l8.533-256zM503.467 819.2c-34.133 25.6-93.867 34.133-145.067 34.133h-153.6v-256h162.133c42.667 0 102.4-8.533 145.067 8.533s68.267 59.733 68.267 93.867c-25.6 42.667-25.6 102.4-76.8 119.467z"></path>
</symbol>
<symbol id="ico-vk_shadow" viewBox="0 0 1024 1024">
	<title>vk_shadow</title>
	<path fill="currentColor" class="path1" d="M583.68 491.52l68.267-112.64-54.613-58.027-133.12-13.653h-122.88l-341.333 341.333v375.467h296.96l354.987-354.987z"></path>
	<path class="path2" d="M512 716.8c122.88 0 170.667-64.853 170.667-122.88 3.413-64.853-17.067-92.16-98.987-102.4 20.48-3.413 37.547-13.653 51.2-30.72s20.48-37.547 20.48-58.027c0-58.027-58.027-95.573-122.88-95.573h-191.147v409.6h170.667zM573.44 587.093c-10.24 17.067-10.24 40.96-30.72 47.787-13.653 10.24-37.547 13.653-58.027 13.653h-61.44v-102.4h64.853c17.067 0 40.96-3.413 58.027 3.413s27.307 23.893 27.307 37.547zM423.253 375.467h34.133c13.653 0 47.787 0 54.613 6.827 17.067 6.827 23.893 23.893 23.893 37.547s-6.827 34.133-20.48 40.96c-17.067 13.653-40.96 17.067-58.027 17.067h-37.547l3.413-102.4z"></path>
</symbol>
</svg>
