<?xml version="1.0" encoding="utf-8"?>
<!-- Generator: Adobe Illustrator 19.0.0, SVG Export Plug-In . SVG Version: 6.00 Build 0)  -->
<svg version="1.1" id="Layer_1" xmlns="http://www.w3.org/2000/svg" xmlns:xlink="http://www.w3.org/1999/xlink" x="0px" y="0px"
	 viewBox="0 0 8 14" style="enable-background:new 0 0 8 14;" xml:space="preserve">
<g id="XMLID_2_">
	<path id="XMLID_6_" d="M7.7,0H5.8C3.7,0,2.2,1.4,2.2,3.4V5H0.3C0.1,5,0,5.1,0,5.3v2.3c0,0.2,0.1,0.3,0.3,0.3h1.9v5.8
		c0,0.2,0.1,0.3,0.3,0.3h2.5c0.2,0,0.3-0.1,0.3-0.3V7.9h2.2c0.2,0,0.3-0.1,0.3-0.3V5.3c0-0.1,0-0.1-0.1-0.2C7.7,5,7.7,5,7.6,5H5.4
		V3.7c0-0.6,0.2-1,1.1-1h1.3C7.9,2.7,8,2.6,8,2.4V0.3C8,0.1,7.9,0,7.7,0z"/>
</g>
</svg>
