<?xml version="1.0" encoding="utf-8"?>
<!-- Generator: Adobe Illustrator 19.0.0, SVG Export Plug-In . SVG Version: 6.00 Build 0)  -->
<svg version="1.1" id="Layer_1" xmlns="http://www.w3.org/2000/svg" xmlns:xlink="http://www.w3.org/1999/xlink" x="0px" y="0px"
	 viewBox="0 0 30 30" style="enable-background:new 0 0 30 30;" xml:space="preserve">
<polygon id="recktangle" points="15.8,18.3 19.4,15.2 13,12.4 12.2,8.1 0,20.3 0,30 11.3,30 19,22.4 "/>
<g id="XMLID_2_">
	<g id="XMLID_3_">
		<path id="XMLID_8_" d="M18.8,15.1c-0.2,0.1-0.4,0.2-0.6,0.3c-1.9,1.2-4.4,1.2-6.3-0.1c-0.1-0.1-0.2-0.1-0.3-0.2
			c-0.5-0.2-1-0.1-1.4,0.3c-0.3,0.6-0.3,1,0.1,1.4c0.1,0.1,0.2,0.2,0.3,0.3c1,0.7,2.2,1.1,3.5,1.2c-0.1,0.1-0.1,0.2-0.2,0.2
			c-0.9,0.9-1.9,1.8-2.8,2.7c-0.2,0.2-0.3,0.4-0.3,0.7c0,0.4,0.2,0.8,0.6,1c0.4,0.2,0.8,0.1,1.2-0.2c0.7-0.7,1.5-1.4,2.2-2.1
			c0.2-0.2,0.3-0.2,0.5,0c0.7,0.7,1.5,1.4,2.2,2.1c0.2,0.2,0.4,0.3,0.6,0.3c0.4,0,0.8-0.2,1-0.6c0.2-0.4,0.1-0.8-0.2-1.1
			C18,20.4,17,19.4,16,18.5c-0.1-0.1-0.1-0.1-0.2-0.2c0.7-0.1,1.5-0.2,2.1-0.4c0.7-0.3,1.4-0.6,1.9-1.1c0.2-0.3,0.2-0.7,0-1.2
			C19.6,15.1,19.2,15,18.8,15.1z"/>
		<path id="XMLID_14_" d="M15,7c-2.3,0-4.2,1.8-4.2,4s1.9,4.1,4.2,4.1s4.3-1.8,4.3-4C19.3,8.8,17.4,7,15,7z M15,13
			c-1.2,0-2.1-0.9-2.1-2s0.9-2,2.1-2s2.1,0.9,2.1,2S16.2,13,15,13z"/>
	</g>
</g>
</svg>
