<?xml version="1.0" encoding="utf-8"?>
<!-- Generator: Adobe Illustrator 19.0.0, SVG Export Plug-In . SVG Version: 6.00 Build 0)  -->
<svg version="1.1" id="Layer_1" xmlns="http://www.w3.org/2000/svg" xmlns:xlink="http://www.w3.org/1999/xlink" x="0px" y="0px"
	 viewBox="0 0 30 30" style="enable-background:new 0 0 30 30;" xml:space="preserve">
<style type="text/css">
	.st0{fill:#010002;}
</style>
<polygon id="XMLID_9_" class="st0" points="15.8,17.1 17.1,11.7 16.7,7.8 13.1,5.8 10.4,7.2 0,17.6 0,30 10,30 15.8,24.2 "/>
<g>
	<path id="XMLID_7_" d="M14.8,5.5c-1.8,0-3.2,0.6-4.3,1.6c-0.7,0.5-0.7,1.8-0.2,2.5l0.3,0.6c0.5,0.8,1.3,0.8,2,0.4
		c0.6-0.4,1.3-0.7,1.9-0.7c1,0,1.6,0.5,1.6,1.4v0c0,1.1-0.8,2.7-3.2,3l-0.1,0.1c0,0.1,0,0.8,0.1,1.8L13,17c0.1,1,0.8,1.7,1.5,1.7
		c0.4,0,0.8-0.1,1-0.3c0.2-0.1,0.3-0.3,0.3-0.5c0.1-0.5,0.3-0.8,0.3-0.8c2.3-1.1,3.9-3,3.9-6.2v-0.1C20,7.5,17.9,5.5,14.8,5.5z"/>
	<path id="XMLID_6_" d="M15,20.2h-1.2c-0.8,0-1.4,0.8-1.4,1.8v0.8c0,1,0.6,1.8,1.4,1.8H15c0.8,0,1.4-0.8,1.4-1.8v-0.8
		C16.4,21,15.8,20.2,15,20.2z"/>
</g>
</svg>
