<?xml version="1.0" encoding="utf-8"?>
<!-- Generator: Adobe Illustrator 19.1.1, SVG Export Plug-In . SVG Version: 6.00 Build 0)  -->
<svg version="1.1" id="Layer_1" xmlns="http://www.w3.org/2000/svg" xmlns:xlink="http://www.w3.org/1999/xlink" x="0px" y="0px"
	 viewBox="0 0 49.9 47.9" style="enable-background:new 0 0 49.9 47.9;" xml:space="preserve">
<style type="text/css">
	.st0{fill:#010202;}
</style>
<g id="XMLID_1_">
	<g>
		<path class="st0" d="M47.9,18.8c0.2,0.6,0,1.2-0.4,1.6l-8.7,8.5c-0.9,0.8-1.3,2-1.1,3.2l2.1,12c0.1,0.6-0.1,1.2-0.6,1.5
			c-0.5,0.4-1.1,0.4-1.7,0.1L26.7,40c-0.5-0.3-1.1-0.4-1.7-0.4s-1.1,0.1-1.7,0.4l-10.8,5.7c-0.5,0.3-1.2,0.2-1.7-0.1
			c-0.5-0.4-0.7-0.9-0.6-1.5l2.1-12c0.2-1.2-0.2-2.3-1-3.2l-8.8-8.5c-0.4-0.4-0.6-1-0.4-1.6s0.7-1,1.3-1.1l12.1-1.8
			c1.2-0.2,2.2-0.9,2.7-2l5.4-11C23.9,2.3,24.4,2,25,2s1.1,0.3,1.4,0.9l5.4,11c0.5,1.1,1.5,1.8,2.7,2l12.1,1.8
			C47.2,17.8,47.7,18.2,47.9,18.8z"/>
		<path class="st0" d="M47.5,20.4c0.4-0.4,0.6-1,0.4-1.6s-0.7-1-1.3-1.1l-12.1-1.8c-1.2-0.2-2.2-0.9-2.7-2l-5.4-11
			C26.1,2.3,25.6,2,25,2s-1.1,0.3-1.4,0.9l-5.4,11c-0.5,1.1-1.5,1.8-2.7,2L3.4,17.7c-0.6,0.1-1.1,0.5-1.3,1.1s0,1.2,0.4,1.6l8.8,8.5
			c0.8,0.9,1.2,2,1,3.2l-2.1,12c-0.1,0.6,0.1,1.1,0.6,1.5c0.5,0.3,1.2,0.4,1.7,0.1L23.3,40c0.6-0.3,1.1-0.4,1.7-0.4s1.2,0.1,1.7,0.4
			l10.8,5.7c0.6,0.3,1.2,0.3,1.7-0.1c0.5-0.3,0.7-0.9,0.6-1.5l-2.1-12c-0.2-1.2,0.2-2.4,1.1-3.2L47.5,20.4z M49.8,18.1
			c0.4,1.3,0.1,2.7-0.9,3.7l-8.8,8.5c-0.4,0.4-0.6,0.9-0.5,1.4l2.1,12c0.3,1.4-0.3,2.7-1.4,3.5c-0.6,0.5-1.4,0.7-2.1,0.7
			c-0.6,0-1.2-0.1-1.7-0.4l-10.8-5.7c-0.5-0.2-1-0.2-1.5,0l-10.8,5.7c-1.2,0.6-2.7,0.5-3.8-0.3c-1.1-0.8-1.6-2.1-1.4-3.5l2.1-12
			c0-0.5-0.1-1-0.5-1.4l-8.7-8.5c-1-1-1.3-2.4-0.9-3.7c0.4-1.3,1.5-2.2,2.9-2.4l12.1-1.8c0.5-0.1,1-0.4,1.2-0.9l5.4-11
			c0.6-1.2,1.8-2,3.2-2s2.6,0.8,3.2,2l5.4,11c0.2,0.5,0.7,0.8,1.2,0.9l12.1,1.8C48.3,15.9,49.4,16.8,49.8,18.1z"/>
	</g>
	<g>
	</g>
</g>
</svg>
