<?xml version="1.0" encoding="utf-8"?>
<!-- Generator: Adobe Illustrator 19.0.0, SVG Export Plug-In . SVG Version: 6.00 Build 0)  -->
<svg version="1.1" id="Layer_1" xmlns="http://www.w3.org/2000/svg" xmlns:xlink="http://www.w3.org/1999/xlink" x="0px" y="0px"
	 viewBox="0 0 30 30" style="enable-background:new 0 0 30 30;" xml:space="preserve">
<polygon id="XMLID_9_" points="15.5,15 14.7,8.6 0,23.3 0,30 8.3,30 16.3,22 "/>
<g id="XMLID_2_">
	<path id="XMLID_7_" d="M18.7,8h-1.9c-2.1,0-3.6,1.4-3.6,3.4V13h-1.9c-0.2,0-0.3,0.1-0.3,0.3v2.3c0,0.2,0.1,0.3,0.3,0.3h1.9v5.8
		c0,0.2,0.1,0.3,0.3,0.3h2.5c0.2,0,0.3-0.1,0.3-0.3v-5.8h2.2c0.2,0,0.3-0.1,0.3-0.3v-2.3c0-0.1,0-0.1-0.1-0.2
		C18.7,13,18.7,13,18.6,13h-2.2v-1.3c0-0.6,0.2-1,1.1-1h1.3c0.2,0,0.3-0.1,0.3-0.3V8.3C19,8.1,18.9,8,18.7,8z"/>
</g>
</svg>
