<?xml version="1.0" encoding="utf-8"?>
<!-- Generator: Adobe Illustrator 19.0.0, SVG Export Plug-In . SVG Version: 6.00 Build 0)  -->
<svg version="1.1" id="Layer_1" xmlns="http://www.w3.org/2000/svg" xmlns:xlink="http://www.w3.org/1999/xlink" x="0px" y="0px"
	 viewBox="0 0 16 14" style="enable-background:new 0 0 16 14;" xml:space="preserve">
<g>
	<g>
		<path d="M10.4,0H6.5c-1.7,0-3,0.3-4,1.1C1.6,1.7,1.1,2.6,1.1,3.5c0,1.4,1.2,2.9,3.6,2.9c0.2,0,0.5,0,0.7,0l0,0.1
			C5.2,6.6,5.1,6.8,5.1,7.1c0,0.5,0.3,0.9,0.6,1.2l0,0l-0.1,0c-1,0.1-2.7,0.2-4,0.8C0.1,9.9,0,11.1,0,11.4C0,12.7,1.4,14,4.6,14
			c3.7,0,5.6-1.7,5.6-3.5c0-1.3-0.9-1.9-1.8-2.6L7.7,7.5C7.4,7.3,7.1,7.1,7.1,6.7c0-0.4,0.3-0.6,0.6-0.9l0,0
			c0.8-0.6,1.8-1.2,1.8-2.6c0-1.4-1-2.1-1.5-2.5h1.3c0,0,0,0,0,0l1.1-0.6C10.5,0.1,10.5,0.1,10.4,0C10.5,0,10.5,0,10.4,0z M5.7,13.2
			c-2.3,0-3.8-0.9-3.8-2.2c0-0.9,0.6-1.5,1.8-1.9C4.7,8.8,6,8.8,6,8.8c0.2,0,0.3,0,0.5,0c1.6,1,2.3,1.5,2.3,2.4
			C8.8,12.5,7.6,13.2,5.7,13.2z M5.6,5.9C3.7,5.9,3,3.8,3,2.6c0-0.6,0.2-1,0.5-1.4c0.3-0.4,0.9-0.6,1.5-0.6c1.7,0,2.7,2,2.7,3.4
			c0,0.2,0,0.9-0.5,1.3C6.7,5.7,6.1,5.9,5.6,5.9z"/>
		<path id="XMLID_1_" d="M15.9,6.5h-2.1V4.8c0,0,0-0.1-0.1-0.1h-0.9c0,0-0.1,0-0.1,0.1v1.8h-2.1c0,0-0.1,0-0.1,0.1v0.8
			c0,0,0,0.1,0.1,0.1h2.1v1.8c0,0,0,0.1,0.1,0.1h0.9c0,0,0.1,0,0.1-0.1V7.4h2.1c0,0,0.1,0,0.1-0.1L15.9,6.5C16,6.6,16,6.5,15.9,6.5z
			"/>
	</g>
</g>
</svg>
