<?xml version="1.0" encoding="utf-8"?>
<!-- Generator: Adobe Illustrator 19.0.0, SVG Export Plug-In . SVG Version: 6.00 Build 0)  -->
<svg version="1.1" id="Layer_1" xmlns="http://www.w3.org/2000/svg" xmlns:xlink="http://www.w3.org/1999/xlink" x="0px" y="0px"
	 viewBox="0 0 30 30" style="enable-background:new 0 0 30 30;" xml:space="preserve">
<polygon id="XMLID_13_" points="18.5,15.5 17.6,14.5 15.4,12.4 15.2,10.8 14.8,8.5 11.5,8.5 10.8,8.4 9.1,9.4 0,18.5 0,30 8.4,30 
	23,15.4 "/>
<g id="XMLID_2_">
	<g id="XMLID_3_">
		<path id="XMLID_19_" d="M17.3,8h-3.8c-1.7,0-3,0.3-4,1.1c-0.9,0.6-1.4,1.5-1.4,2.5c0,1.4,1.2,2.9,3.6,2.9c0.2,0,0.5,0,0.7,0v0.1
			c-0.1,0.2-0.2,0.3-0.2,0.7c0,0.5,0.3,0.8,0.6,1.2h-0.1c-1,0.1-2.7,0.2-4,0.8C7.1,17.9,7,19,7,19.4c0,1.3,1.4,2.6,4.6,2.6
			c3.7,0,5.6-1.7,5.6-3.5c0-1.3-0.9-1.9-1.8-2.5l-0.8-0.5c-0.2-0.2-0.5-0.3-0.5-0.8s0.3-0.7,0.6-0.8c0.8-0.6,1.8-1.2,1.8-2.6
			c0-1.4-1-2.1-1.5-2.5h1.3l1.1-0.6V8.1C17.4,8.1,17.4,8,17.3,8z M15.8,19.2c0,1.2-1.2,2-3.1,2c-2.3,0-3.8-0.9-3.8-2.2
			c0-0.8,0.6-1.5,1.8-1.9c1-0.3,2.2-0.3,2.3-0.3c0.2,0,0.3,0,0.5,0C15,17.8,15.8,18.3,15.8,19.2z M14.1,13.3
			c-0.4,0.3-0.9,0.5-1.5,0.5c-1.9,0-2.7-2.1-2.7-3.2c0-0.6,0.2-1,0.5-1.4c0.3-0.3,0.9-0.6,1.5-0.6c1.7,0,2.7,2,2.7,3.3
			C14.6,12.2,14.6,12.9,14.1,13.3z"/>
		<path id="XMLID_8_" d="M20.8,14.5v-1.8c0,0,0-0.1-0.1-0.1h-0.9c0,0-0.1,0-0.1,0.1v1.8h-2.1c0,0-0.1,0-0.1,0.1v0.8
			c0,0,0,0.1,0.1,0.1h2.1v1.8c0,0,0,0.1,0.1,0.1h0.9c0,0,0.1,0,0.1-0.1v-1.8h2.1c0,0,0.1,0,0.1-0.1l-0.1-0.8H20.8z"/>
	</g>
</g>
</svg>
