<?xml version="1.0" encoding="utf-8"?>
<!-- Generator: Adobe Illustrator 19.0.0, SVG Export Plug-In . SVG Version: 6.00 Build 0)  -->
<svg version="1.1" id="Layer_1" xmlns="http://www.w3.org/2000/svg" xmlns:xlink="http://www.w3.org/1999/xlink" x="0px" y="0px"
	 viewBox="0 0 459 306" style="enable-background:new 0 0 459 306;" xml:space="preserve">
<g>
	<g id="menu">
		<path d="M84,306h375v-51H84V306z M84,178.5h375v-51H84V178.5z M84,0v51h375V0H84z"/>
	</g>
</g>
<path d="M12.5,255h27c6.6,0,12,5.4,12,12v27c0,6.6-5.4,12-12,12h-27c-6.6,0-12-5.4-12-12v-27C0.5,260.4,5.9,255,12.5,255z"/>
<path d="M12.5,127.5h27c6.6,0,12,5.4,12,12v27c0,6.6-5.4,12-12,12h-27c-6.6,0-12-5.4-12-12v-27C0.5,132.9,5.9,127.5,12.5,127.5z"/>
<path id="XMLID_14_" d="M12,0h27c6.6,0,12,5.4,12,12v27c0,6.6-5.4,12-12,12H12C5.4,51,0,45.6,0,39V12C0,5.4,5.4,0,12,0z"/>
</svg>
