<?xml version="1.0" encoding="utf-8"?>
<!-- Generator: Adobe Illustrator 19.0.0, SVG Export Plug-In . SVG Version: 6.00 Build 0)  -->
<svg version="1.1" id="Layer_1" xmlns="http://www.w3.org/2000/svg" xmlns:xlink="http://www.w3.org/1999/xlink" x="0px" y="0px"
	 viewBox="0 0 10 16" style="enable-background:new 0 0 10 16;" xml:space="preserve">
<g>
	<g>
		<path id="XMLID_3_" d="M4.2,11.3c-1.3-0.1-2.4-0.4-3.4-1.2C0.6,10,0.5,9.9,0.4,9.8C-0.1,9.4-0.1,9,0.3,8.5C0.5,8.1,1,8,1.6,8.2
			c0.1,0.1,0.2,0.1,0.3,0.2c1.8,1.2,4.4,1.3,6.2,0.1c0.2-0.2,0.4-0.3,0.6-0.3C9.1,8,9.5,8.2,9.8,8.5c0.3,0.4,0.3,0.9-0.1,1.2
			c-0.5,0.5-1.1,0.9-1.8,1.1c-0.7,0.3-1.4,0.4-2,0.4C6,11.4,6,11.4,6.1,11.5C7,12.4,8,13.3,9,14.3c0.3,0.3,0.4,0.7,0.2,1.1
			C9,15.8,8.6,16,8.1,16c-0.3,0-0.5-0.2-0.7-0.3C6.8,15,6,14.3,5.3,13.6c-0.2-0.2-0.3-0.2-0.5,0c-0.7,0.7-1.4,1.4-2.2,2.1
			c-0.3,0.3-0.7,0.4-1.1,0.2c-0.4-0.2-0.7-0.6-0.7-1c0-0.3,0.2-0.5,0.3-0.7c0.9-0.9,1.9-1.8,2.8-2.7C4.1,11.4,4.1,11.4,4.2,11.3z"/>
		<path d="M4.9,8.1c-2.3,0-4.2-1.9-4.1-4.1C0.8,1.8,2.7,0,5,0s4.2,1.8,4.1,4.1C9.2,6.3,7.3,8.1,4.9,8.1z M7,4.1c0-1.1-0.9-2-2-2
			c-1.2,0-2,0.9-2,2s0.9,2,2,2C6.2,6,7,5.1,7,4.1z"/>
	</g>
</g>
</svg>
