<?xml version="1.0" encoding="utf-8"?>
<!-- Generator: Adobe Illustrator 19.0.0, SVG Export Plug-In . SVG Version: 6.00 Build 0)  -->
<svg version="1.1" id="Layer_1" xmlns="http://www.w3.org/2000/svg" xmlns:xlink="http://www.w3.org/1999/xlink" x="0px" y="0px"
	 viewBox="0 0 12 10" style="enable-background:new 0 0 12 10;" xml:space="preserve">
<style type="text/css">
	.st0{fill:#010002;}
</style>
<g>
	<g>
		<path id="XMLID_1_" class="st0" d="M12,1.2c-0.4,0.2-0.9,0.3-1.4,0.4c0.5-0.3,0.9-0.8,1.1-1.4c-0.5,0.3-1,0.5-1.6,0.6
			C9.6,0.3,9,0,8.3,0C7,0,5.9,1.1,5.9,2.5c0,0.2,0,0.4,0.1,0.6C3.9,3,2.1,2,0.9,0.5C0.7,0.8,0.6,1.3,0.6,1.7c0,0.9,0.4,1.6,1.1,2.1
			c-0.4,0-0.8-0.1-1.1-0.3v0c0,1.2,0.8,2.3,2,2.5C2.3,6.1,2,6.1,1.8,6.1c-0.2,0-0.3,0-0.5,0c0.3,1,1.2,1.7,2.3,1.8
			c-0.8,0.7-1.9,1.1-3,1.1c-0.2,0-0.4,0-0.6,0C1.1,9.5,2.4,10,3.7,10c4.5,0,7-3.9,7-7.2V2.5C11.2,2.1,11.7,1.7,12,1.2z"/>
	</g>
</g>
</svg>
