<?xml version="1.0" encoding="utf-8"?>
<!-- Generator: Adobe Illustrator 19.0.0, SVG Export Plug-In . SVG Version: 6.00 Build 0)  -->
<svg version="1.1" id="Layer_1" xmlns="http://www.w3.org/2000/svg" xmlns:xlink="http://www.w3.org/1999/xlink" x="0px" y="0px"
	 viewBox="0 0 30 30" style="enable-background:new 0 0 30 30;" xml:space="preserve">
<polygon id="XMLID_8_" points="9.8,10.6 0,20.4 0,30 5.6,30 17.4,18.2 "/>
<path id="XMLID_6_" d="M20.7,10.2c-0.5,0.3-1,0.5-1.6,0.6C18.7,10.3,18,10,17.3,10c-1.4,0-2.5,1.1-2.5,2.6c0,0.2,0,0.4,0.1,0.6
	c-2-0.1-3.9-1.1-5.1-2.7c-0.2,0.4-0.3,0.8-0.3,1.2c0,0.9,0.4,1.6,1.1,2c-0.4,0-0.8-0.1-1.1-0.3c0,1.2,0.8,2.2,2,2.4
	C11.3,16,11.1,16,10.9,16h-0.5c0.3,1,1.2,1.7,2.3,1.7c-0.8,0.7-1.9,1.1-3.1,1.1H9c1.1,0.7,2.4,1.1,3.8,1.1c4.5,0,7-3.9,7-7.1v-0.3
	c0.5-0.3,0.9-0.8,1.2-1.3c-0.4,0.2-0.9,0.3-1.4,0.4C20.1,11.3,20.5,10.8,20.7,10.2z"/>
</svg>
