<?xml version="1.0" encoding="utf-8"?>
<!-- Generator: Adobe Illustrator 19.0.0, SVG Export Plug-In . SVG Version: 6.00 Build 0)  -->
<svg version="1.1" id="Layer_1" xmlns="http://www.w3.org/2000/svg" xmlns:xlink="http://www.w3.org/1999/xlink" x="0px" y="0px"
	 viewBox="0 0 10 12" style="enable-background:new 0 0 10 12;" xml:space="preserve">
<path id="XMLID_15_" d="M7.1,5.4C7.7,5.3,8.2,5,8.6,4.5s0.6-1.1,0.6-1.7C9.2,1.1,7.5,0,5.6,0H4H0v12h5c3.6,0,5-1.9,5-3.6
	C10.1,6.5,9.5,5.7,7.1,5.4z M2.4,2h1C3.8,2,4.8,2,5,2.2c0.5,0.2,0.7,0.7,0.7,1.1s-0.2,1-0.6,1.2C4.6,4.9,3.9,5,3.4,5H2.3L2.4,2
	L2.4,2z M5.9,9.6C5.5,9.9,4.8,10,4.2,10H2.4V7h1.9c0.5,0,1.2-0.1,1.7,0.1s0.8,0.7,0.8,1.1C6.5,8.7,6.5,9.4,5.9,9.6z"/>
</svg>
