<?xml version="1.0" encoding="utf-8"?>
<!-- Generator: Adobe Illustrator 19.0.0, SVG Export Plug-In . SVG Version: 6.00 Build 0)  -->
<svg version="1.1" id="Layer_1" xmlns="http://www.w3.org/2000/svg" xmlns:xlink="http://www.w3.org/1999/xlink" x="0px" y="0px"
	 viewBox="0 0 30 30" style="enable-background:new 0 0 30 30;" xml:space="preserve">
<polygon id="XMLID_24_" points="17.1,14.4 19.1,11.1 17.5,9.4 13.6,9 10,9 9.2,9.8 0,19 0,30 8.7,30 19.1,19.6 "/>
<path id="XMLID_29_" d="M15,21c3.6,0,5-1.9,5-3.6c0.1-1.9-0.5-2.7-2.9-3c0.6-0.1,1.1-0.4,1.5-0.9s0.6-1.1,0.6-1.7
	c0-1.7-1.7-2.8-3.6-2.8H14h-4v12H15z M16.8,17.2c-0.3,0.5-0.3,1.2-0.9,1.4c-0.4,0.3-1.1,0.4-1.7,0.4h-1.8v-3h1.9
	c0.5,0,1.2-0.1,1.7,0.1C16.5,16.3,16.8,16.8,16.8,17.2z M12.4,11h1c0.4,0,1.4,0,1.6,0.2c0.5,0.2,0.7,0.7,0.7,1.1s-0.2,1-0.6,1.2
	c-0.5,0.4-1.2,0.5-1.7,0.5h-1.1L12.4,11z"/>
</svg>
