<svg id="logo" xmlns="http://www.w3.org/2000/svg" viewBox="0 0 183.6 35.6"><style>.st0{fill:#19BB9B;} .st1{fill:#19B999;} .st2{fill:#06929E;} .st3{opacity:0.3;fill:#1ABC9C;} .st4{opacity:0.3;fill:#1CBC9D;} .st5{fill:none;stroke:#A7AFB6;stroke-miterlimit:10;} .st6{fill:#17A88C;} .st7{fill:#FFFFFF;}</style><g id="text"><g id="XMLID_28_"><path id="XMLID_29_" class="st0" d="M117 33.3V32h1.1v1.2H117z"/><path id="XMLID_31_" class="st0" d="M119.7 30.2c0-.5 0-.9.2-1.3.1-.4.3-.8.6-1.1.2-.3.5-.5.8-.7.3-.2.7-.3 1.1-.3.4 0 .8.1 1.1.2.3.2.6.4.8.7V27h.8v2.3h-.8c0-.5-.1-.8-.4-1.2-.3-.3-.7-.5-1.1-.5-.6 0-1.1.3-1.4.8-.3.4-.4 1-.4 1.7 0 .3 0 .7.1.9.1.3.2.5.3.8.3.5.8.8 1.4.8.4 0 .7-.1 1-.4.3-.3.4-.6.5-1h1c0 .7-.2 1.2-.7 1.6-.5.4-1.1.6-1.8.6-.9 0-1.6-.3-2.1-.9-.8-.7-1-1.4-1-2.3z"/><path id="XMLID_33_" class="st0" d="M125.7 30c0-.5.1-.9.2-1.3s.3-.7.6-1c.3-.3.6-.5 1-.7.4-.2.8-.2 1.2-.2.9 0 1.6.3 2.1 1 .5.6.7 1.4.7 2.3 0 .9-.2 1.7-.7 2.3-.5.6-1.2 1-2.2 1-.5 0-.9-.1-1.3-.2-.4-.2-.7-.4-1-.8-.4-.8-.6-1.5-.6-2.4zm1 0c0 .4 0 .7.1 1 .1.3.2.5.3.8l.6.6c.3.1.5.2.8.2.3 0 .6-.1.9-.3.3-.2.5-.4.6-.7.1-.3.2-.5.3-.8.1-.3.1-.6.1-.9 0-.7-.1-1.3-.4-1.7-.3-.5-.8-.8-1.5-.8-.3 0-.6.1-.9.2-.3.1-.5.4-.7.7-.1.2-.2.5-.3.8.2.3.1.6.1.9z"/><path id="XMLID_36_" class="st0" d="M132.3 33.3v-.8h1v-4.8h-1V27h2v1.1c.1-.4.3-.7.6-1 .3-.2.7-.4 1.1-.4.5 0 .8.1 1.2.4.3.2.5.6.6 1 .1-.4.3-.7.6-.9.3-.2.7-.4 1.1-.4.5 0 .9.1 1.3.4.3.3.6.6.6.9 0 .1 0 .2.1.4v3.9h.9v.8h-2.9v-.8h1v-3.1c0-.6 0-1-.1-1.2-.2-.4-.5-.6-1.1-.6-.3 0-.5.1-.8.2-.2.2-.4.4-.5.6-.1.2-.1.5-.2.7v3.3h1v.8H136v-.8h1v-3.1c0-.6 0-1-.1-1.2-.2-.4-.5-.6-1.1-.6-.3 0-.5.1-.7.2-.2.2-.4.4-.5.6-.1.2-.1.4-.2.6V32.2h1v.8h-3.1z"/><path id="XMLID_38_" class="st0" d="M143.6 33.3V32h1.1v1.2h-1.1z"/><path id="XMLID_40_" class="st0" d="M146.2 27.7V27h2v3.8c0 .7.1 1.2.3 1.4.2.2.5.3.9.3.6 0 1.1-.3 1.4-.9.1-.2.2-.4.2-.7 0-.3.1-.5.1-.8v-2.5H150V27h2v5.5h1v.8h-2v-1.2c-.2.5-.4.8-.7 1-.3.2-.7.3-1.2.3s-.9-.1-1.2-.3c-.4-.2-.6-.6-.7-1 0-.1-.1-.3-.1-.5v-3.8h-.9z"/><path id="XMLID_42_" class="st0" d="M153.8 31.4c0-.7.2-1.2.7-1.5.4-.3 1-.4 1.7-.4h1.7v-.6c0-.2 0-.4-.1-.6-.1-.2-.2-.3-.3-.5-.1-.1-.2-.2-.4-.2-.2-.1-.3-.1-.5-.1-.3 0-.5 0-.7.1-.2.1-.4.2-.5.4-.1.1-.1.2-.2.3 0 .1-.1.3-.1.4h-1c0-.5.1-.8.3-1.1.2-.3.6-.5 1-.7.1-.1.3-.1.5-.1h.6c.3 0 .7 0 .9.1.3.1.5.2.8.4.2.2.4.4.5.7.1.2.1.5.1.9v3.6h1v.8h-1.9V32c-.2.5-.5.8-.8 1-.3.2-.7.3-1.3.3-.5 0-.9-.1-1.2-.3-.4-.2-.6-.6-.7-1 0-.1 0-.3-.1-.4v-.2zm1 .1c0 .3.1.6.3.8.2.2.5.3.8.3.7 0 1.2-.2 1.5-.7.3-.4.4-1 .4-1.7h-1c-.7 0-1.1.1-1.4.2-.4.1-.6.5-.6 1.1z"/></g><g id="XMLID_4_"><path id="XMLID_5_" class="st1" d="M37 22.6v-1.8h2.9V4.4H37V2.5H47.2c.4 0 .8.1 1.2.2 1.3.3 2.3 1 2.9 2.1.6 1 .9 2.2.9 3.6 0 1-.1 1.9-.4 2.6-.3.7-.8 1.4-1.6 2.1-.6.5-1.4.9-2.2 1-.5.1-1.3.1-2.5.1h-3.3v6.4h3.4v1.8H37zm5.2-10.1h3c.8 0 1.4 0 1.8-.1.6-.1 1.1-.4 1.6-.8.4-.4.7-.9.9-1.4.2-.5.2-1.1.2-1.7 0-.7-.1-1.4-.3-1.9-.2-.6-.5-1-1.1-1.4-.4-.3-.9-.5-1.5-.6-.5-.1-1.2-.1-2-.1h-2.7v8z"/><path id="XMLID_8_" class="st1" d="M54.1 22.6v-1.8h2.3V9.6h-2.3V8h4.6v2.9c.5-1.2 1-2.1 1.6-2.5.6-.4 1.6-.7 2.9-.7h.6v2.1c-.2 0-.4-.1-.5-.1h-.4c-1.5 0-2.6.6-3.3 1.7-.5.9-.8 2.2-.8 3.8v5.6h2.8v1.8h-7.5z"/><path id="XMLID_10_" class="st1" d="M65.2 15.1c0-1.1.1-2.1.4-3 .3-.9.7-1.7 1.4-2.4.6-.7 1.4-1.2 2.3-1.6.9-.4 1.8-.5 2.8-.5 2.2 0 3.8.8 5 2.3 1.1 1.4 1.6 3.2 1.6 5.4s-.6 3.9-1.7 5.3c-1.2 1.5-2.9 2.3-5 2.3-1.2 0-2.2-.2-3-.6-.9-.4-1.6-1-2.2-1.9-1.1-1.6-1.6-3.4-1.6-5.3zm2.4 0c0 .9.1 1.7.2 2.3.1.7.4 1.3.8 1.8.4.6.9 1 1.5 1.4.6.3 1.2.5 1.9.5s1.4-.2 2-.6c.7-.4 1.1-.9 1.4-1.5.3-.6.6-1.3.7-1.8.1-.6.2-1.3.2-2.1 0-1.6-.3-2.9-.9-3.9-.7-1.2-1.9-1.9-3.4-1.9-.8 0-1.5.2-2 .5-.6.3-1.1.9-1.5 1.6-.3.5-.5 1.1-.6 1.8-.2.5-.3 1.2-.3 1.9z"/><path id="XMLID_13_" class="st1" d="M80.5 22.6v-1.8h2.4V9.6h-2.4V8h4.6v2.6c.2-.9.7-1.7 1.5-2.2.8-.6 1.6-.8 2.6-.8 1.1 0 2 .3 2.7.8.7.6 1.2 1.3 1.5 2.2.2-.9.7-1.6 1.5-2.2.8-.6 1.7-.9 2.7-.9 1.1 0 2.1.3 2.9.9.8.6 1.3 1.3 1.5 2.2 0 .2.1.6.1 1 0 .3.1.7.1 1.3v7.9h2.1v1.8h-6.7v-1.8h2.3v-7.3c0-1.4-.1-2.3-.3-2.8-.4-.9-1.2-1.4-2.5-1.4-.7 0-1.3.2-1.8.5-.5.4-.9.9-1.2 1.5-.2.5-.3 1.1-.4 1.7 0 .5-.1 1.1-.1 1.7v6.1h2.3v1.8h-6.8v-1.8h2.3v-7.3c0-1.4-.1-2.3-.3-2.8-.4-.9-1.2-1.4-2.5-1.4-.6 0-1.2.2-1.7.6-.5.4-.9.9-1.2 1.5-.2.4-.3.9-.4 1.4-.1.7-.1 1.3-.1 1.9v6.1h2.3v1.8h-7z"/><path id="XMLID_15_" class="st1" d="M105.6 15.1c0-1.1.1-2.1.4-3 .3-.9.7-1.7 1.4-2.4.6-.7 1.4-1.2 2.3-1.6.9-.4 1.8-.5 2.8-.5 2.2 0 3.8.8 5 2.3 1.1 1.4 1.6 3.2 1.6 5.4s-.6 3.9-1.7 5.3c-1.2 1.5-2.9 2.3-5 2.3-1.2 0-2.2-.2-3-.6-.9-.4-1.6-1-2.2-1.9-1.1-1.6-1.6-3.4-1.6-5.3zm2.4 0c0 .9.1 1.7.2 2.3.1.7.4 1.3.8 1.8.4.6.9 1 1.5 1.4.6.3 1.2.5 1.9.5s1.4-.2 2-.6c.7-.4 1.1-.9 1.4-1.5.3-.6.6-1.3.7-1.8.1-.6.2-1.3.2-2.1 0-1.6-.3-2.9-.9-3.9-.7-1.2-1.9-1.9-3.4-1.9-.8 0-1.5.2-2 .5-.6.3-1.1.9-1.5 1.6-.3.5-.5 1.1-.6 1.8-.2.5-.3 1.2-.3 1.9z"/><path id="XMLID_18_" class="st2" d="M120.8 22.6v-1.8h2.4V4.2h-2.4V2.5h4.6v12.6l5.2-5.5h-2.1V8h6.6v1.7h-2l-3.5 3.7 4.2 7.5h1.5v1.8h-5.9v-1.8h1.8l-3.3-6.1-2.5 2.5v3.5h2.1v1.8h-6.7z"/><path id="XMLID_20_" class="st2" d="M136.7 15.1c0-1.1.1-2.1.4-3 .3-.9.7-1.7 1.4-2.4.6-.7 1.4-1.2 2.3-1.6.9-.4 1.8-.5 2.8-.5 2.2 0 3.8.8 5 2.3 1.1 1.4 1.6 3.2 1.6 5.4s-.6 3.9-1.7 5.3c-1.2 1.5-2.9 2.3-5 2.3-1.2 0-2.2-.2-3-.6s-1.6-1-2.2-1.9c-1-1.6-1.6-3.4-1.6-5.3zm2.5 0c0 .9.1 1.7.2 2.3.1.7.4 1.3.8 1.8.4.6.9 1 1.5 1.4.6.3 1.2.5 1.9.5s1.4-.2 2-.6c.7-.4 1.1-.9 1.4-1.5.3-.6.6-1.3.7-1.8.1-.6.2-1.3.2-2.1 0-1.6-.3-2.9-.9-3.9-.7-1.2-1.9-1.9-3.4-1.9-.8 0-1.5.2-2 .5-.6.3-1.1.9-1.5 1.6-.3.5-.5 1.1-.6 1.8-.3.5-.3 1.2-.3 1.9z"/><path id="XMLID_23_" class="st2" d="M152.5 15c0-2.1.5-3.8 1.4-5.2 1.1-1.5 2.6-2.3 4.7-2.3s3.6.8 4.6 2.5l.2.3V4.2H161V2.5h4.7v18.3h2.4v1.8h-4.6v-2.9c-.4 1-1 1.8-1.8 2.3-.8.5-1.8.8-3 .8-1 0-2-.3-2.8-.8-.9-.5-1.6-1.3-2.2-2.4-.9-1.1-1.2-2.6-1.2-4.6zm2.6-2.2c-.2.7-.3 1.4-.3 2 0 .6 0 1.1.1 1.5 0 .5.1.9.3 1.4.3 1.1.8 1.9 1.4 2.4.7.6 1.6 1 2.6 1 .7 0 1.4-.2 2-.5.6-.4 1.1-.9 1.4-1.5.3-.7.5-1.3.6-1.8.1-.6.1-1.3.1-2.2 0-1.5-.3-2.8-.8-3.9-.7-1.3-1.8-2-3.2-2-.8 0-1.5.1-2 .4-.5.3-1 .8-1.5 1.5-.3.4-.5 1-.7 1.7z"/><path id="XMLID_26_" class="st2" d="M168.8 9.6V8h6.2v1.7h-2.3l3.6 10.2 3.5-10.2h-2.3V8h6v1.7h-1.3l-4.8 13.1-.9 2.2c-.3.6-.5 1-.7 1.3-.2.3-.5.5-.8.7-.3.2-.7.3-1.1.5-.4.1-.8.2-1.2.2-.3 0-.6 0-1-.1s-.7-.1-.8-.1v-1.8c.5.1 1 .2 1.7.2s1.2-.4 1.6-1.1c.3-.4.5-1.1.8-1.9l-4.9-13h-1.3z"/></g></g><path id="_x33_rd_label" class="st3" d="M12.5 9.3s1.4-.6 3.5 1.3l11.3 15.8L15 35.1 3.7 19.3c-1.2-2.8-.2-3.7-.2-3.7"/><path id="_x32_nd_label" class="st4" d="M13.8 13.4s1.4-.5 3 1.3l7.4 13.9-13.2 7-7.4-13.9c-.5-2.5.5-3.1.5-3.1"/><g id="main_label"><path id="ellipse-bottom" class="st5" d="M6.8 7.6c-.9 0-2-1.3-2.4-3.1-.2-.8-.2-1.5-.2-2.1"/><path class="st6" d="M10.4 1.9L1.6 4.1S-.3 4.6 0 9.7L6 34l14.6-3.6-6-24.4c-2.2-4.6-4.2-4.1-4.2-4.1zM7.5 9.8c-.8.2-1.6-.3-1.8-1.1-.2-.8.3-1.6 1.1-1.8.8-.2 1.6.3 1.8 1.1s-.3 1.6-1.1 1.8z"/><path id="ellipse-top" class="st5" d="M4.2 2.4c.1-1 .5-1.7 1.1-1.9 1-.3 2.2 1.1 2.7 3s.1 3.7-1 4h-.3"/><path class="st7" d="M14.4 25.9c-.8.2-1.5 0-2-.4s-.8-1.1-1-1.9c-.2-.7-.1-1.4.1-2 .3-.7.8-1.1 1.6-1.3.8-.2 1.4 0 2 .4.4.4.8 1 1 1.7.2.8.2 1.4 0 2-.5.9-1 1.4-1.7 1.5zm-1.2-4.4c-.3.1-.6.2-.6 1.1 0 .3.1.6.1.9.1.4.2.7.4.9.2.3.5.4.8.3.2 0 .4-.2.5-.7.1-.3 0-.7-.1-1.1-.1-.5-.3-.8-.4-1-.1-.3-.3-.4-.7-.4zm-5.3 5.8L11.4 15l1.3-.3-3.5 12.2-1.3.4zm-.2-5.6c-.8.2-1.4 0-2-.5-.5-.4-.8-1-1-1.8-.2-.7-.2-1.4.1-2 .3-.7.8-1.1 1.5-1.3.8-.2 1.4 0 2 .5.4.4.8 1 1 1.8.2.8.2 1.5-.1 2.1-.2.5-.7 1-1.5 1.2zm-1-4.5c-.3.1-.5.3-.6.8 0 .3 0 .7.1 1.2.1.4.3.7.4 1 .2.3.5.4.8.3.3-.1.4-.3.5-.7 0-.3 0-.7-.1-1.1-.1-.5-.3-.8-.4-1-.1-.4-.4-.6-.7-.5z" id="percent"/></g></svg>